<?xml version="1.0" encoding="UTF-8" standalone="no"?>
<svg
   xmlns:dc="http://purl.org/dc/elements/1.1/"
   xmlns:cc="http://creativecommons.org/ns#"
   xmlns:rdf="http://www.w3.org/1999/02/22-rdf-syntax-ns#"
   xmlns:svg="http://www.w3.org/2000/svg"
   xmlns="http://www.w3.org/2000/svg"
   viewBox="0 0 636 461.33334"
   height="461.33334"
   width="636"
   xml:space="preserve"
   id="svg2"
   version="1.1"><metadata
     id="metadata8"><rdf:RDF><cc:Work
         rdf:about=""><dc:format>image/svg+xml</dc:format><dc:type
           rdf:resource="http://purl.org/dc/dcmitype/StillImage" /></cc:Work></rdf:RDF></metadata><defs
     id="defs6" /><g
     transform="matrix(1.3333333,0,0,-1.3333333,0,461.33333)"
     id="g10"><g
       transform="scale(0.1)"
       id="g12"><g
         transform="scale(10)"
         id="g14"><text
           id="text20"
           style="font-variant:normal;font-size:23.80970001px;font-family:f-0;-inkscape-font-specification:f-0-0;writing-mode:lr-tb;fill:#000000;fill-opacity:1;fill-rule:nonzero;stroke:none"
           transform="matrix(1,0,0,-1,464.807,40.9715)"><tspan
             id="tspan16"
             y="0"
             x="0">x</tspan><tspan
             id="tspan18"
             y="-293.25201"
             x="-232.558">y</tspan></text>
</g><path
         id="path22"
         style="fill:none;stroke:#000000;stroke-width:12;stroke-linecap:butt;stroke-linejoin:miter;stroke-miterlimit:4;stroke-dasharray:none;stroke-opacity:1"
         d="M 2469.38,639.5 H 4761.91" /><path
         id="path24"
         style="fill:none;stroke:#000000;stroke-width:12;stroke-linecap:butt;stroke-linejoin:miter;stroke-miterlimit:4;stroke-dasharray:none;stroke-opacity:1"
         d="M 2930.08,699.703 V 555.672" /><path
         id="path26"
         style="fill:none;stroke:#000000;stroke-width:12;stroke-linecap:butt;stroke-linejoin:miter;stroke-miterlimit:4;stroke-dasharray:none;stroke-opacity:1"
         d="M 3426.41,699.703 V 555.672" /><path
         id="path28"
         style="fill:none;stroke:#000000;stroke-width:12;stroke-linecap:butt;stroke-linejoin:miter;stroke-miterlimit:4;stroke-dasharray:none;stroke-opacity:1"
         d="M 3922.73,699.703 V 555.672" /><path
         id="path30"
         style="fill:none;stroke:#000000;stroke-width:12;stroke-linecap:butt;stroke-linejoin:miter;stroke-miterlimit:4;stroke-dasharray:none;stroke-opacity:1"
         d="M 4419.06,699.703 V 555.672" /><path
         id="path32"
         style="fill:none;stroke:#000000;stroke-width:12;stroke-linecap:butt;stroke-linejoin:miter;stroke-miterlimit:4;stroke-dasharray:none;stroke-opacity:1"
         d="M 2473.52,641.422 V 3261.18" /><path
         id="path34"
         style="fill:none;stroke:#000000;stroke-width:12;stroke-linecap:butt;stroke-linejoin:miter;stroke-miterlimit:4;stroke-dasharray:none;stroke-opacity:1"
         d="m 2401.48,1077.35 h 144.03" /><path
         id="path36"
         style="fill:none;stroke:#000000;stroke-width:12;stroke-linecap:butt;stroke-linejoin:miter;stroke-miterlimit:4;stroke-dasharray:none;stroke-opacity:1"
         d="m 2401.48,1573.68 h 144.03" /><path
         id="path38"
         style="fill:none;stroke:#000000;stroke-width:12;stroke-linecap:butt;stroke-linejoin:miter;stroke-miterlimit:4;stroke-dasharray:none;stroke-opacity:1"
         d="m 2401.48,2070.01 h 144.03" /><path
         id="path40"
         style="fill:none;stroke:#000000;stroke-width:12;stroke-linecap:butt;stroke-linejoin:miter;stroke-miterlimit:4;stroke-dasharray:none;stroke-opacity:1"
         d="m 2401.48,2566.3 h 144.03" /><path
         id="path42"
         style="fill:none;stroke:#000000;stroke-width:12;stroke-linecap:butt;stroke-linejoin:miter;stroke-miterlimit:4;stroke-dasharray:none;stroke-opacity:1"
         d="M 2470,639.5 H 6.01953" /><path
         id="path44"
         style="fill:none;stroke:#000000;stroke-width:12;stroke-linecap:butt;stroke-linejoin:miter;stroke-miterlimit:4;stroke-dasharray:none;stroke-opacity:1"
         d="m 2016.95,567.512 v 143.98" /><path
         id="path46"
         style="fill:none;stroke:#000000;stroke-width:12;stroke-linecap:butt;stroke-linejoin:miter;stroke-miterlimit:4;stroke-dasharray:none;stroke-opacity:1"
         d="m 1520.63,567.512 v 143.98" /><path
         id="path48"
         style="fill:none;stroke:#000000;stroke-width:12;stroke-linecap:butt;stroke-linejoin:miter;stroke-miterlimit:4;stroke-dasharray:none;stroke-opacity:1"
         d="m 1024.3,567.512 v 143.98" /><path
         id="path50"
         style="fill:none;stroke:#000000;stroke-width:12;stroke-linecap:butt;stroke-linejoin:miter;stroke-miterlimit:4;stroke-dasharray:none;stroke-opacity:1"
         d="m 527.969,567.512 v 143.98" /><path
         id="path52"
         style="fill:none;stroke:#000000;stroke-width:12;stroke-linecap:butt;stroke-linejoin:miter;stroke-miterlimit:4;stroke-dasharray:none;stroke-opacity:1"
         d="M 2473.52,637.203 V 5.99219" /><path
         id="path54"
         style="fill:none;stroke:#000000;stroke-width:12;stroke-linecap:butt;stroke-linejoin:miter;stroke-miterlimit:4;stroke-dasharray:none;stroke-opacity:1"
         d="M 2545.51,189.82 H 2401.48" /><path
         id="path56"
         style="fill:none;stroke:#000000;stroke-width:12;stroke-linecap:butt;stroke-linejoin:miter;stroke-miterlimit:4;stroke-dasharray:none;stroke-opacity:1"
         d="m 2399.96,3002.28 h 143.99" /><path
         id="path58"
         style="fill:none;stroke:#d40000;stroke-width:24;stroke-linecap:butt;stroke-linejoin:miter;stroke-miterlimit:4;stroke-dasharray:none;stroke-opacity:1"
         d="m 2484.57,3009.11 c 150.2,-73.4 164.26,-260.35 223.13,-398.4 230.46,-728.9 327.96,-1497.11 616.6,-2207.89 42.34,-107.847 130.7,-247.379 266.25,-209.84 221.17,74.762 298.67,316.911 410.62,498.012 71.37,125.43 175.08,280.539 338.01,272.149 181.25,-17.899 307.42,-172.188 424.18,-295.321" /><path
         id="path60"
         style="fill:none;stroke:#d40000;stroke-width:24;stroke-linecap:butt;stroke-linejoin:miter;stroke-miterlimit:4;stroke-dasharray:none;stroke-opacity:1"
         d="M 2462.73,3010.28 C 2312.58,2936.89 2298.48,2749.97 2239.61,2611.89 2009.14,1882.98 1911.64,1114.78 1623.01,404.031 1580.66,296.184 1492.3,156.652 1356.76,194.152 c -221.17,74.77 -298.67,316.95 -410.631,498.051 -71.359,125.387 -175.078,280.539 -338,272.149 -181.25,-17.93 -307.43,-172.231 -424.18,-295.36" /><path
         id="path62"
         style="fill:#f9f9f9;fill-opacity:1;fill-rule:evenodd;stroke:none"
         d="m 2517.03,3002.12 c 0,-25 -20.23,-45.27 -45.23,-45.27 -25,0 -45.28,20.27 -45.28,45.27 0,25 20.28,45.24 45.28,45.24 25,0 45.23,-20.24 45.23,-45.24 z" /><path
         id="path64"
         style="fill:none;stroke:#000000;stroke-width:12;stroke-linecap:butt;stroke-linejoin:miter;stroke-miterlimit:4;stroke-dasharray:none;stroke-opacity:1"
         d="m 2517.03,3002.12 c 0,-25 -20.23,-45.27 -45.23,-45.27 -25,0 -45.28,20.27 -45.28,45.27 0,25 20.28,45.23 45.28,45.23 25,0 45.23,-20.23 45.23,-45.23 z" /><g
         transform="scale(10)"
         id="g66"><text
           id="text78"
           style="font-variant:normal;font-size:17.57229996px;font-family:f-0;-inkscape-font-specification:f-0-0;writing-mode:lr-tb;fill:#000000;fill-opacity:1;fill-rule:nonzero;stroke:none"
           transform="matrix(1,0,0,-1,210.957,103.634)"><tspan
             id="tspan68"
             y="0"
             x="0 9.735054 13.337376">0.2</tspan><tspan
             id="tspan70"
             y="-48.0383"
             x="-0.37734401 9.3577099 12.960032">0.4</tspan><tspan
             id="tspan72"
             y="-98.905098"
             x="-0.27890649 9.4561481 13.058469">0.6</tspan><tspan
             id="tspan74"
             y="-146.37781"
             x="-0.23164091 9.5034132 13.105735">0.8</tspan><tspan
             id="tspan76"
             y="-192.1532"
             x="-0.36445391 9.3706007 12.972921">1.0</tspan></text>
<text
           id="text92"
           style="font-variant:normal;font-size:21.09049988px;font-family:f-0;-inkscape-font-specification:f-0-0;writing-mode:lr-tb;fill:#000000;fill-opacity:1;fill-rule:nonzero;stroke:none"
           transform="matrix(1,0,0,-1,286.43665,36.9142)"><tspan
             id="tspan80"
             y="0"
             x="0">2</tspan><tspan
             id="tspan82"
             y="-0.0464844"
             x="49.368">4</tspan><tspan
             id="tspan84"
             y="-0.082421899"
             x="99.096497 148.78593">68</tspan><tspan
             id="tspan86"
             y="0"
             x="-97.083504 -90.081451">‐2</tspan><tspan
             id="tspan88"
             y="-0.0464844"
             x="-146.36011 -139.35805">‐4</tspan><tspan
             id="tspan90"
             y="-0.082421899"
             x="-198.3394 -191.33736 -244.491 -237.48895">‐6‐8</tspan></text>
</g><path
         id="path94"
         style="fill:#000000;fill-opacity:1;fill-rule:nonzero;stroke:none"
         d="m 712.621,2552.28 v 0.54 l 0.469,0.28 v 1.48 l 0.461,0.2 v 0.15 0.16 0.12 0.15 0.16 0.12 0.15 0.12 0.08 0.27 0.24 0.23 0.24 0.15 0.12 0.16 0.15 c 0,4.1 -3.199,6.17 -6.442,6.17 -2.269,0 -5.937,-1.36 -8.238,-4.84 -0.473,-1.09 -2.312,-8.2 -3.211,-12.34 -1.398,-5.9 -3.238,-12.11 -4.609,-18.25 l -10.071,-41.17 c -0.941,-3.4 -11.019,-19.41 -25.71,-19.41 -11.95,0 -14.219,10.04 -14.219,18.51 0,10.55 3.679,24.69 11.449,44.81 3.672,9.37 4.609,11.91 4.609,16.44 0,10.32 -7.339,18.75 -18.828,18.75 -21.562,0 -30.269,-33.16 -30.269,-35.19 0,-2.27 2.297,-2.27 2.726,-2.27 2.313,0 2.782,0.43 3.672,4.1 6.449,21.49 15.629,28.32 23.399,28.32 1.839,0 5.511,0 5.511,-7.3 0,-5.7 -2.269,-11.64 -3.672,-16.02 -9.179,-24.21 -13.277,-37.26 -13.277,-47.96 0,-20.36 14.219,-27.23 27.969,-27.23 8.75,0 16.519,3.9 22.961,10.31 -3.199,-11.91 -5.973,-23.12 -14.68,-35.23 -5.98,-7.78 -14.691,-14.42 -25.242,-14.42 -3.238,0 -13.789,0.74 -17.457,9.65 3.668,0 6.449,0 9.648,2.7 2.309,2.07 4.571,5.04 4.571,9.41 0,7.07 -5.942,7.97 -8.243,7.97 -5.507,0 -12.847,-3.67 -12.847,-14.84 0,-11.45 10.078,-19.89 24.328,-19.89 23.402,0 46.801,20.78 53.211,46.64 z" /><path
         id="path96"
         style="fill:#000000;fill-opacity:1;fill-rule:nonzero;stroke:none"
         d="m 942.07,2539.93 h 1.41 l 0.899,0.04 v 0 h 0.461 l 0.469,0.08 v 0.04 l 0.429,0.04 0.473,0.04 0.469,0.08 v 0.07 l 0.468,0.08 v 0.08 l 0.43,0.16 0.473,0.11 v 0.16 l 0.469,0.12 v 0.19 l 0.46,0.2 v 0.23 l 0.43,0.24 v 0.11 0.08 0.16 0.16 0.11 0.2 l 0.469,0.11 v 0.2 0.12 0.19 0.2 0.19 0.16 0.19 0.24 0.23 c 0,4.53 -4.141,4.53 -7.34,4.53 H 805.352 c -3.243,0 -7.34,0 -7.34,-4.53 0,-4.61 4.097,-4.61 7.769,-4.61 z" /><path
         id="path98"
         style="fill:#000000;fill-opacity:1;fill-rule:nonzero;stroke:none"
         d="m 942.539,2495.6 h 1.84 l 0.461,0.08 v 0 l 0.469,0.04 0.429,0.03 v 0.04 l 0.473,0.04 0.469,0.04 v 0.12 l 0.468,0.08 0.43,0.08 v 0.11 l 0.473,0.12 v 0.16 l 0.469,0.19 v 0.16 l 0.46,0.19 v 0.2 0.12 l 0.43,0.15 v 0.08 0.16 0.11 0.16 0.12 0.15 l 0.469,0.16 v 0.16 0.19 0.16 0.19 0.2 0.15 0.2 0.23 0.2 c 0,4.57 -4.141,4.57 -7.809,4.57 H 805.781 c -3.672,0 -7.769,0 -7.769,-4.57 0,-4.57 4.097,-4.57 7.34,-4.57 z" /><path
         id="path100"
         style="fill:#000000;fill-opacity:1;fill-rule:nonzero;stroke:none"
         d="m 1099.02,2665.56 0.47,-0.12 0.47,-0.08 0.47,-0.15 0.9,-0.12 0.94,-0.19 0.43,-0.24 0.93,-0.19 0.9,-0.24 0.94,-0.27 0.9,-0.35 1.4,-0.36 0.9,-0.43 0.94,-0.39 0.9,-0.46 0.94,-0.55 1.36,-0.55 0.9,-0.58 0.94,-0.67 0.9,-0.66 0.93,-0.74 0.9,-0.82 0.94,-0.9 0.43,-0.9 0.94,-0.98 0.47,-1.01 0.43,-0.55 0.46,-0.55 v -0.58 l 0.47,-0.55 v -0.63 l 0.47,-0.62 v -0.63 -0.66 l 0.43,-0.7 v -0.67 -0.7 -0.74 -0.71 -0.78 c 0,-11.68 -7.77,-20.82 -25.66,-20.82 -19.3,0 -27.54,13.05 -31.68,32.46 -0.94,2.97 -0.94,3.91 -3.2,3.91 -3.25,0 -3.25,-1.6 -3.25,-5.74 v -30.16 c 0,-3.9 0,-5.51 2.78,-5.51 0.89,0 1.36,0.24 5.5,4.61 0.47,0.43 0.47,0.9 4.57,5.24 10.12,-9.61 20.67,-9.85 25.28,-9.85 26.13,0 36.68,15.36 36.68,31.8 0,12.15 -6.88,18.99 -9.61,21.72 -7.35,7.3 -16.06,9.14 -25.7,10.98 -12.86,2.5 -28.48,5.5 -28.48,18.75 0,8 5.98,17.34 25.7,17.34 25.24,0 26.17,-20.55 26.64,-27.66 0.43,-2.07 2.27,-2.07 2.74,-2.07 3.2,0 3.2,1.18 3.2,5.51 v 23.09 c 0,3.9 0,5.51 -2.73,5.51 -0.94,0 -1.37,0 -4.61,-2.74 -0.43,-0.94 -2.74,-3.01 -3.64,-3.67 -8.75,6.41 -17.93,6.41 -21.6,6.41 -27.97,0 -36.72,-15.32 -36.72,-28.13 0,-8.01 3.67,-14.41 10.12,-19.41 7.34,-5.98 13.75,-7.35 30.27,-10.55 z" /><path
         id="path102"
         style="fill:#000000;fill-opacity:1;fill-rule:nonzero;stroke:none"
         d="m 1183.48,2722.28 -32.11,-2.54 v -7.07 c 15.11,0 16.95,-1.37 16.95,-12.62 v -61.44 c 0,-10.32 -2.27,-10.32 -17.89,-10.32 v -7.07 h 49.1 v 7.07 c -15.15,0 -16.05,1.14 -16.05,10.04 z" /><path
         id="path104"
         style="fill:#000000;fill-opacity:1;fill-rule:nonzero;stroke:none"
         d="m 1184.38,2762 v 2.62 l -0.43,0.67 v 1.17 l -0.47,0.54 -0.47,0.55 v 0.51 l -0.47,0.51 v 0.5 l -0.43,0.47 -0.47,0.47 -0.47,0.39 -0.47,0.43 -0.43,0.39 -0.47,0.35 -0.46,0.36 -0.43,0.31 -0.47,0.27 -0.47,0.28 -0.47,0.27 -0.43,0.23 -0.47,0.2 -0.94,0.19 -0.43,0.12 -0.46,0.16 -0.47,0.08 -0.9,0.03 -0.47,0.04 h -0.47 c -7.34,0 -12.38,-6.13 -12.38,-12.11 0,-6.13 5.04,-12.1 12.38,-12.1 6.45,0 11.92,4.8 11.92,12.1 z" /><path
         id="path106"
         style="fill:#000000;fill-opacity:1;fill-rule:nonzero;stroke:none"
         d="m 1232.58,2699.86 v -61.25 c 0,-10.32 -2.74,-10.32 -17.89,-10.32 v -7.07 h 51.4 v 7.07 c -15.15,0 -17.93,0 -17.93,10.32 v 42.03 c 0,23.79 16.1,36.6 30.79,36.6 14.68,0 16.95,-12.34 16.95,-25.39 v -53.24 c 0,-10.32 -2.27,-10.32 -17.89,-10.32 v -7.07 h 51.87 v 7.07 c -11.95,0 -17.93,0 -17.93,6.88 v 43.63 c 0,19.69 0,26.76 -7.3,35.04 -3.24,3.83 -10.59,8.44 -23.87,8.44 -16.52,0 -27.54,-9.85 -33.98,-24.03 v 24.03 l -32.11,-2.54 v -7.07 c 16.05,0 17.89,-1.6 17.89,-12.81 z" /><path
         id="path108"
         style="fill:#000000;fill-opacity:1;fill-rule:nonzero;stroke:none"
         d="m 1448.71,2690.25 0.47,0.58 v 1.49 l 0.47,0.82 v 0.86 l 0.47,0.97 0.43,0.94 v 1.06 l 0.47,1.05 0.46,1.13 0.47,1.14 0.43,1.09 0.47,1.17 0.47,1.13 0.9,1.14 0.47,1.17 0.94,1.09 0.42,1.1 0.94,1.05 0.9,1.02 0.47,1.01 0.94,0.9 0.9,0.9 1.36,0.82 0.94,0.74 0.9,0.63 0.94,0.31 0.46,0.27 0.43,0.24 0.94,0.23 0.47,0.24 0.43,0.19 0.94,0.12 0.47,0.15 0.9,0.08 0.46,0.08 0.9,0.08 h 0.94 c 0.9,0 6.41,0 11.48,-3.01 -6.44,-1.13 -11.01,-6.83 -11.01,-12.3 0,-3.68 2.26,-8.01 8.71,-8.01 5.04,0 12.38,4.1 12.38,13.24 0,11.91 -13.75,15.12 -21.56,15.12 -13.32,0 -21.13,-12.11 -23.87,-17.38 -5.97,15.07 -18.36,17.38 -24.76,17.38 -23.87,0 -36.72,-29.53 -36.72,-35.2 0,-2.3 2.26,-2.3 2.73,-2.3 1.84,0 2.31,0.47 2.78,2.46 7.77,24.3 22.93,30 30.74,30 4.57,0 12.38,-2.07 12.38,-15.31 0,-7.11 -3.67,-22.43 -12.38,-54.42 -3.67,-14.18 -11.49,-23.79 -21.56,-23.79 -1.41,0 -6.92,0 -11.49,3.01 5.51,1.13 10.55,5.9 10.55,12.34 0,6.14 -5.04,7.97 -8.24,7.97 -6.92,0 -12.86,-5.93 -12.86,-13.24 0,-10.51 11.45,-15.12 21.57,-15.12 15.15,0 23.4,16.02 24.33,17.39 2.74,-8.48 10.98,-17.39 24.3,-17.39 23.87,0 36.72,29.54 36.72,35.24 0,2.26 -1.84,2.26 -2.74,2.26 -1.83,0 -2.3,-0.89 -2.77,-2.53 -7.81,-24.46 -23.4,-29.93 -30.74,-29.93 -8.71,0 -12.38,7.31 -12.38,15.12 0,5 1.36,10.04 3.67,20.12 z" /><path
         id="path110"
         style="fill:#000000;fill-opacity:1;fill-rule:nonzero;stroke:none"
         d="m 1051.33,2520.25 h 449.719 v 9.3711 H 1051.33 Z" /><path
         id="path112"
         style="fill:#000000;fill-opacity:1;fill-rule:nonzero;stroke:none"
         d="m 1288.13,2378.18 0.42,0.58 v 1.49 l 0.47,0.82 v 0.86 l 0.47,0.97 0.47,0.98 v 1.05 l 0.43,1.06 0.47,1.09 0.47,1.14 0.47,1.09 0.43,1.17 0.47,1.13 0.93,1.18 0.43,1.13 0.94,1.09 0.47,1.1 0.9,1.05 0.93,1.02 0.43,1.01 0.94,0.94 0.9,0.86 1.41,0.82 0.9,0.74 0.93,0.63 0.9,0.35 0.47,0.27 0.47,0.2 0.9,0.23 0.47,0.24 0.43,0.19 0.93,0.12 0.47,0.15 0.9,0.08 0.47,0.12 0.9,0.04 h 0.93 c 0.9,0 6.41,0 11.49,-3.01 -6.45,-1.13 -11.02,-6.84 -11.02,-12.26 0,-3.68 2.27,-8.05 8.71,-8.05 5.04,0 12.39,4.14 12.39,13.28 0,11.87 -13.75,15.08 -21.57,15.08 -13.32,0 -21.09,-12.11 -23.86,-17.39 -5.98,15.08 -18.36,17.39 -24.77,17.39 -23.87,0 -36.72,-29.49 -36.72,-35.2 0,-2.3 2.31,-2.3 2.74,-2.3 1.83,0 2.3,0.47 2.77,2.5 7.81,24.26 22.93,29.96 30.74,29.96 4.57,0 12.39,-2.07 12.39,-15.27 0,-7.15 -3.68,-22.47 -12.39,-54.46 -3.67,-14.18 -11.48,-23.75 -21.56,-23.75 -1.37,0 -6.87,0 -11.48,2.97 5.5,1.13 10.54,5.94 10.54,12.34 0,6.18 -5.04,8.01 -8.24,8.01 -6.87,0 -12.85,-5.97 -12.85,-13.28 0,-10.51 11.48,-15.12 21.56,-15.12 15.16,0 23.4,16.02 24.34,17.43 2.73,-8.52 11.01,-17.43 24.29,-17.43 23.87,0 36.72,29.54 36.72,35.28 0,2.22 -1.83,2.22 -2.73,2.22 -1.84,0 -2.31,-0.89 -2.77,-2.5 -7.82,-24.45 -23.4,-29.92 -30.75,-29.92 -8.71,0 -12.38,7.31 -12.38,15.08 0,5 1.37,10.08 3.67,20.12 z" /><path
         id="path114"
         style="fill:#000000;fill-opacity:1;fill-rule:nonzero;stroke:none"
         d="m 3345.94,2623.84 -33.01,-2.54 v -7.07 c 16.05,0 17.89,-1.6 17.89,-12.81 v -118.83 c 0,-10.35 -2.3,-10.35 -17.89,-10.35 v -7.07 h 50.94 v 7.07 c -15.16,0 -17.93,0 -17.93,10.35 z" /><path
         id="path116"
         style="fill:#000000;fill-opacity:1;fill-rule:nonzero;stroke:none"
         d="m 3410.2,2566.22 -32.11,-2.5 v -7.07 c 15.11,0 16.95,-1.36 16.95,-12.61 v -61.45 c 0,-10.35 -2.27,-10.35 -17.89,-10.35 v -7.07 h 49.1 v 7.07 c -15.12,0 -16.05,1.17 -16.05,10.08 z" /><path
         id="path118"
         style="fill:#000000;fill-opacity:1;fill-rule:nonzero;stroke:none"
         d="m 3411.13,2605.99 v 2.62 l -0.47,0.62 v 1.21 l -0.46,0.55 -0.47,0.55 v 0.5 l -0.43,0.51 v 0.51 l -0.47,0.43 -0.47,0.47 -0.47,0.43 -0.43,0.39 -0.47,0.43 -0.47,0.31 -0.47,0.39 -0.42,0.31 -0.47,0.28 -0.47,0.27 -0.47,0.27 -0.43,0.24 -0.47,0.19 -0.94,0.16 -0.43,0.16 -0.47,0.11 -0.46,0.12 -0.9,0.04 -0.47,0.04 h -0.47 c -7.34,0 -12.38,-6.13 -12.38,-12.11 0,-6.17 5.04,-12.11 12.38,-12.11 6.45,0 11.95,4.8 11.95,12.11 z" /><path
         id="path120"
         style="fill:#000000;fill-opacity:1;fill-rule:nonzero;stroke:none"
         d="m 3454.73,2543.84 v -61.25 c 0,-10.35 -2.78,-10.35 -17.89,-10.35 v -7.07 h 51.36 v 7.07 c -15.11,0 -17.89,0 -17.89,10.35 v 42.03 c 0,23.75 16.06,36.56 30.74,36.56 14.69,0 17,-12.34 17,-25.35 v -53.24 c 0,-10.35 -2.31,-10.35 -17.89,-10.35 v -7.07 h 51.83 v 7.07 c -15.58,0 -17.89,0 -17.89,10.35 v 42.03 c 0,23.75 16.06,36.56 30.74,36.56 14.22,0 17,-12.34 17,-25.35 v -53.24 c 0,-10.35 -2.78,-10.35 -17.89,-10.35 v -7.07 h 51.4 v 7.07 c -11.95,0 -17.46,0 -17.93,6.91 v 43.64 c 0,19.68 0,26.75 -6.87,35 -3.21,3.86 -11.02,8.43 -24.3,8.43 -18.83,0 -28.95,-13.71 -33.05,-22.38 -3.24,19.88 -20.19,22.38 -30.31,22.38 -16.52,0 -27.54,-9.8 -33.94,-23.98 v 23.98 l -32.11,-2.5 v -7.07 c 16.05,0 17.89,-1.6 17.89,-12.81 z" /><path
         id="path122"
         style="fill:#000000;fill-opacity:1;fill-rule:nonzero;stroke:none"
         d="m 3313.36,2339.9 -0.43,-0.55 v -1.06 l -0.47,-0.58 v -0.55 l -0.47,-0.62 -0.47,-0.55 v -0.59 l -0.43,-0.58 -0.46,-0.59 -0.47,-0.62 v -0.55 l -0.47,-0.59 -0.43,-0.54 -0.47,-0.55 -0.47,-0.55 -0.47,-0.54 -0.43,-0.51 -0.94,-0.47 -0.46,-0.47 -0.43,-0.47 -0.47,-0.39 -0.47,-0.39 -0.9,-0.35 -0.47,-0.31 -0.94,-0.28 -0.43,-0.23 -0.93,-0.24 -0.47,-0.15 -0.9,-0.12 -0.47,-0.08 h -0.9 c -0.47,0 -5.08,0 -8.75,2.23 6.45,2.07 7.35,7.81 7.35,8.83 0,3.47 -2.74,5.86 -6.41,5.86 -4.61,0 -9.18,-3.79 -9.18,-9.73 0,-8.05 8.71,-11.72 16.52,-11.72 7.35,0 14.22,4.65 17.89,11.41 4.14,-8.52 12.86,-11.41 19.26,-11.41 18.36,0 28.01,20.04 28.01,24.49 0,2.11 -1.84,2.11 -2.3,2.11 -2.27,0 -2.74,-0.78 -3.21,-2.73 -3.2,-11.06 -12.85,-19.34 -22.03,-19.34 -6.41,0 -9.65,4.3 -9.65,10.35 0,4.18 3.67,18.72 8.28,36.49 3.21,12.34 10.55,16.33 15.59,16.33 0.47,0 5.51,0 8.75,-2.23 -5.08,-1.45 -6.91,-5.94 -6.91,-8.79 0,-3.51 2.77,-5.94 6.44,-5.94 3.67,0 8.71,3.05 8.71,9.77 0,8.98 -10.08,11.68 -16.52,11.68 -7.81,0 -14.22,-5.27 -17.89,-11.37 -2.78,6.56 -10.12,11.37 -19.26,11.37 -17.93,0 -28.01,-19.69 -28.01,-24.49 0,-2.07 2.31,-2.07 2.74,-2.07 1.83,0 2.3,0.66 2.77,2.73 4.14,12.46 14.22,19.34 22.03,19.34 5.51,0 9.61,-2.89 9.61,-10.55 0,-3.2 -1.84,-11.21 -3.2,-16.64 z" /><path
         id="path124"
         style="fill:#000000;fill-opacity:1;fill-rule:nonzero;stroke:none"
         d="m 3526.29,2359.07 -1.84,-1.4 -1.83,-1.45 -1.84,-1.4 -1.37,-1.53 -1.36,-1.44 -1.37,-1.53 -1.41,-1.52 -1.36,-1.52 -0.9,-1.49 -0.94,-1.52 -0.9,-1.48 -0.94,-1.45 -0.89,-1.48 -0.94,-1.41 -0.47,-1.41 -0.9,-1.32 -0.47,-1.33 -0.47,-1.29 -0.43,-1.17 -0.46,-1.18 -0.47,-1.09 v -1.01 l -0.43,-0.94 v -0.9 l -0.47,-0.78 v -0.67 l -0.47,-0.58 v -0.59 -0.39 -0.27 -0.2 -0.08 c 0,-2.38 1.37,-2.38 3.67,-2.38 3.2,0 3.67,0 4.14,2.7 1.37,3.98 3.67,14.22 11.92,23.04 9.18,9.77 17.46,12.15 24.33,14.26 0.9,0.28 1.37,1.25 1.37,2.07 0,1.6 -0.9,1.92 -3.2,2.54 -22.97,7.38 -31.21,23.71 -34.42,37.74 -0.47,1.95 -1.83,1.95 -4.14,1.95 -2.3,0 -3.67,0 -3.67,-2.38 0,-0.36 1.37,-11.06 9.65,-22.07 3.2,-5.47 7.77,-9.93 13.28,-13.79 h -128.48 c -2.77,0 -6.44,0 -6.44,-3.83 0,-4.03 3.67,-4.03 6.44,-4.03 z" /><path
         id="path126"
         style="fill:#000000;fill-opacity:1;fill-rule:nonzero;stroke:none"
         d="m 3645.16,2374 v 6.32 l -0.47,3.05 v 2.93 l -0.43,2.85 v 2.7 l -0.47,2.65 -0.47,2.58 -0.9,2.54 -0.47,2.42 -0.93,2.35 -0.9,2.3 -0.94,2.23 -0.9,2.23 -1.37,2.14 -0.46,1.1 -0.94,1.05 c -4.57,7.35 -14.65,13.71 -27.5,13.71 v -4.45 c 8.71,0 16.95,-5.27 19.72,-14.57 2.74,-8.63 2.74,-20.16 2.74,-34.06 0,-11.84 0,-23.71 -1.84,-33.79 -3.2,-14.53 -14.22,-18.09 -20.62,-18.09 v 0 c -7.35,0 -16.99,4.34 -20.2,17.46 -2.3,9.46 -2.3,22.58 -2.3,34.42 0,11.64 0,23.83 2.3,32.61 3.21,12.7 13.75,16.02 20.2,16.02 v 4.45 c -37.19,0 -37.19,-43.67 -37.19,-55.15 0,-11.57 0,-54.3 37.19,-54.3 37.15,0 37.15,42.73 37.15,54.3 z" /><path
         id="path128"
         style="fill:#000000;fill-opacity:1;fill-rule:nonzero;stroke:none"
         d="m 3766.33,2665.56 0.43,-0.12 0.47,-0.08 0.47,-0.15 0.89,-0.12 0.94,-0.19 0.47,-0.24 0.9,-0.19 0.94,-0.24 0.89,-0.27 0.94,-0.35 1.37,-0.36 0.9,-0.43 0.94,-0.39 0.89,-0.46 0.94,-0.55 1.37,-0.55 0.94,-0.58 0.89,-0.67 0.94,-0.66 0.9,-0.74 0.94,-0.82 0.9,-0.9 0.46,-0.9 0.9,-0.98 0.47,-1.01 0.47,-0.55 0.47,-0.55 v -0.58 l 0.43,-0.55 v -0.63 l 0.47,-0.62 v -0.63 -0.66 l 0.47,-0.7 v -0.67 -0.7 -0.74 -0.71 -0.78 c 0,-11.68 -7.82,-20.82 -25.71,-20.82 -19.25,0 -27.54,13.05 -31.68,32.46 -0.89,2.97 -0.89,3.91 -3.2,3.91 -3.2,0 -3.2,-1.6 -3.2,-5.74 v -30.16 c 0,-3.9 0,-5.51 2.73,-5.51 0.94,0 1.41,0.24 5.51,4.61 0.47,0.43 0.47,0.9 4.61,5.24 10.08,-9.61 20.62,-9.85 25.23,-9.85 26.18,0 36.72,15.36 36.72,31.8 0,12.15 -6.87,18.99 -9.65,21.72 -7.34,7.3 -16.05,9.14 -25.7,10.98 -12.85,2.5 -28.44,5.5 -28.44,18.75 0,8 5.98,17.34 25.71,17.34 25.23,0 26.13,-20.55 26.6,-27.66 0.47,-2.07 2.3,-2.07 2.77,-2.07 3.2,0 3.2,1.18 3.2,5.51 v 23.09 c 0,3.9 0,5.51 -2.77,5.51 -0.9,0 -1.37,0 -4.57,-2.74 -0.47,-0.94 -2.77,-3.01 -3.67,-3.67 -8.71,6.41 -17.89,6.41 -21.56,6.41 -28.01,0 -36.72,-15.32 -36.72,-28.13 0,-8.01 3.67,-14.41 10.08,-19.41 7.34,-5.98 13.78,-7.35 30.31,-10.55 z" /><path
         id="path130"
         style="fill:#000000;fill-opacity:1;fill-rule:nonzero;stroke:none"
         d="m 3846.17,2722.28 -32.11,-2.54 v -7.07 c 15.12,0 16.96,-1.37 16.96,-12.62 v -61.44 c 0,-10.32 -2.31,-10.32 -17.89,-10.32 v -7.07 h 49.1 v 7.07 c -15.16,0 -16.06,1.14 -16.06,10.04 z" /><path
         id="path132"
         style="fill:#000000;fill-opacity:1;fill-rule:nonzero;stroke:none"
         d="m 3847.07,2762 v 2.62 l -0.43,0.67 v 1.17 l -0.47,0.54 -0.47,0.55 v 0.51 l -0.47,0.51 v 0.5 l -0.43,0.47 -0.46,0.47 -0.47,0.39 -0.47,0.43 -0.43,0.39 -0.47,0.35 -0.47,0.36 -0.47,0.31 -0.43,0.27 -0.47,0.28 -0.46,0.27 -0.47,0.23 -0.43,0.2 -0.94,0.19 -0.47,0.12 -0.43,0.16 -0.47,0.08 -0.94,0.03 -0.42,0.04 h -0.47 c -7.35,0 -12.39,-6.13 -12.39,-12.11 0,-6.13 5.04,-12.1 12.39,-12.1 6.4,0 11.91,4.8 11.91,12.1 z" /><path
         id="path134"
         style="fill:#000000;fill-opacity:1;fill-rule:nonzero;stroke:none"
         d="m 3895.27,2699.86 v -61.25 c 0,-10.32 -2.77,-10.32 -17.89,-10.32 v -7.07 h 51.41 v 7.07 c -15.16,0 -17.93,0 -17.93,10.32 v 42.03 c 0,23.79 16.09,36.6 30.74,36.6 14.69,0 16.99,-12.34 16.99,-25.39 v -53.24 c 0,-10.32 -2.3,-10.32 -17.89,-10.32 v -7.07 h 51.88 v 7.07 c -11.95,0 -17.93,0 -17.93,6.88 v 43.63 c 0,19.69 0,26.76 -7.35,35.04 -3.2,3.83 -10.54,8.44 -23.86,8.44 -16.49,0 -27.5,-9.85 -33.95,-24.03 v 24.03 l -32.11,-2.54 v -7.07 c 16.06,0 17.89,-1.6 17.89,-12.81 z" /><path
         id="path136"
         style="fill:#000000;fill-opacity:1;fill-rule:nonzero;stroke:none"
         d="m 4111.41,2690.25 0.47,0.58 v 1.49 l 0.46,0.82 v 0.86 l 0.47,0.97 0.43,0.94 v 1.06 l 0.47,1.05 0.47,1.13 0.47,1.14 0.43,1.09 0.47,1.17 0.47,1.13 0.89,1.14 0.47,1.17 0.94,1.09 0.43,1.1 0.94,1.05 0.9,1.02 0.46,1.01 0.94,0.9 0.9,0.9 1.37,0.82 0.94,0.74 0.89,0.63 0.94,0.31 0.47,0.27 0.43,0.24 0.94,0.23 0.43,0.24 0.47,0.19 0.93,0.12 0.43,0.15 0.94,0.08 0.47,0.08 0.9,0.08 h 0.94 c 0.89,0 6.4,0 11.44,-3.01 -6.41,-1.13 -11.02,-6.83 -11.02,-12.3 0,-3.68 2.31,-8.01 8.75,-8.01 5.04,0 12.39,4.1 12.39,13.24 0,11.91 -13.79,15.12 -21.56,15.12 -13.33,0 -21.14,-12.11 -23.87,-17.38 -5.98,15.07 -18.36,17.38 -24.81,17.38 -23.82,0 -36.68,-29.53 -36.68,-35.2 0,-2.3 2.27,-2.3 2.74,-2.3 1.83,0 2.3,0.47 2.77,2.46 7.77,24.3 22.93,30 30.74,30 4.57,0 12.39,-2.07 12.39,-15.31 0,-7.11 -3.68,-22.43 -12.39,-54.42 -3.67,-14.18 -11.48,-23.79 -21.56,-23.79 -1.41,0 -6.91,0 -11.48,3.01 5.5,1.13 10.54,5.9 10.54,12.34 0,6.14 -5.04,7.97 -8.24,7.97 -6.91,0 -12.85,-5.93 -12.85,-13.24 0,-10.51 11.45,-15.12 21.56,-15.12 15.12,0 23.4,16.02 24.3,17.39 2.77,-8.48 11.01,-17.39 24.34,-17.39 23.86,0 36.71,29.54 36.71,35.24 0,2.26 -1.83,2.26 -2.77,2.26 -1.84,0 -2.27,-0.89 -2.73,-2.53 -7.82,-24.46 -23.4,-29.93 -30.75,-29.93 -8.71,0 -12.38,7.31 -12.38,15.12 0,5 1.37,10.04 3.67,20.12 z" /><path
         id="path138"
         style="fill:#000000;fill-opacity:1;fill-rule:nonzero;stroke:none"
         d="m 3718.59,2520.25 h 449.73 v 9.3711 h -449.73 z" /><path
         id="path140"
         style="fill:#000000;fill-opacity:1;fill-rule:nonzero;stroke:none"
         d="m 3950.78,2378.18 0.47,0.58 v 1.49 l 0.47,0.82 v 0.86 l 0.47,0.97 0.43,0.98 v 1.05 l 0.47,1.06 0.46,1.09 0.47,1.14 0.43,1.09 0.47,1.17 0.47,1.13 0.9,1.18 0.47,1.13 0.94,1.09 0.43,1.1 0.93,1.05 0.9,1.02 0.47,1.01 0.94,0.94 0.9,0.86 1.36,0.82 0.94,0.74 0.9,0.63 0.94,0.35 0.47,0.27 0.42,0.2 0.94,0.23 0.47,0.24 0.43,0.19 0.94,0.12 0.47,0.15 0.9,0.08 0.46,0.12 0.9,0.04 h 0.94 c 0.9,0 6.41,0 11.48,-3.01 -6.44,-1.13 -11.01,-6.84 -11.01,-12.26 0,-3.68 2.26,-8.05 8.71,-8.05 5.04,0 12.38,4.14 12.38,13.28 0,11.87 -13.75,15.08 -21.56,15.08 -13.32,0 -21.13,-12.11 -23.87,-17.39 -5.97,15.08 -18.36,17.39 -24.76,17.39 -23.87,0 -36.72,-29.49 -36.72,-35.2 0,-2.3 2.26,-2.3 2.73,-2.3 1.84,0 2.31,0.47 2.78,2.5 7.77,24.26 22.93,29.96 30.74,29.96 4.57,0 12.38,-2.07 12.38,-15.27 0,-7.15 -3.67,-22.47 -12.38,-54.46 -3.67,-14.18 -11.49,-23.75 -21.56,-23.75 -1.41,0 -6.92,0 -11.49,2.97 5.51,1.13 10.55,5.94 10.55,12.34 0,6.18 -5.04,8.01 -8.24,8.01 -6.92,0 -12.86,-5.97 -12.86,-13.28 0,-10.51 11.45,-15.12 21.57,-15.12 15.15,0 23.4,16.02 24.33,17.43 2.74,-8.52 11.02,-17.43 24.3,-17.43 23.87,0 36.72,29.54 36.72,35.28 0,2.22 -1.84,2.22 -2.74,2.22 -1.83,0 -2.3,-0.89 -2.77,-2.5 -7.81,-24.45 -23.4,-29.92 -30.74,-29.92 -8.71,0 -12.38,7.31 -12.38,15.08 0,5 1.36,10.08 3.67,20.12 z" /><path
         id="path142"
         style="fill:#000000;fill-opacity:1;fill-rule:nonzero;stroke:none"
         d="m 4412.46,2539.93 h 1.37 l 0.94,0.04 v 0 h 0.46 l 0.43,0.08 v 0.04 l 0.47,0.04 0.47,0.04 0.47,0.08 v 0.07 l 0.43,0.08 v 0.08 l 0.47,0.16 0.47,0.11 v 0.16 l 0.47,0.12 v 0.19 l 0.43,0.2 v 0.23 l 0.46,0.24 v 0.11 0.08 0.16 0.16 0.11 0.2 l 0.47,0.11 v 0.2 0.12 0.19 0.2 0.19 0.16 0.19 0.24 0.23 c 0,4.53 -4.14,4.53 -7.34,4.53 H 4275.7 c -3.2,0 -7.34,0 -7.34,-4.53 0,-4.61 4.14,-4.61 7.81,-4.61 z" /><path
         id="path144"
         style="fill:#000000;fill-opacity:1;fill-rule:nonzero;stroke:none"
         d="m 4412.93,2495.6 h 1.84 l 0.46,0.08 v 0 l 0.43,0.04 0.47,0.03 v 0.04 l 0.47,0.04 0.47,0.04 v 0.12 l 0.43,0.08 0.47,0.08 v 0.11 l 0.47,0.12 v 0.16 l 0.47,0.19 v 0.16 l 0.43,0.19 v 0.2 0.12 l 0.46,0.15 v 0.08 0.16 0.11 0.16 0.12 0.15 l 0.47,0.16 v 0.16 0.19 0.16 0.19 0.2 0.15 0.2 0.23 0.2 c 0,4.57 -4.14,4.57 -7.81,4.57 h -136.29 c -3.67,0 -7.81,0 -7.81,-4.57 0,-4.57 4.14,-4.57 7.34,-4.57 z" /><path
         id="path146"
         style="fill:#000000;fill-opacity:1;fill-rule:nonzero;stroke:none"
         d="m 4565.74,2611.5 v 4.49 l -0.47,0.19 v 0.51 l -0.47,0.08 v 0.12 0.11 l -0.42,0.08 v 0.04 0.04 h -0.47 v 0.08 0.04 0 l -0.47,0.04 v 0 0.04 h -0.43 v 0 0 l -0.47,0.04 v 0 h -0.47 v 0 h -0.47 v 0 0.07 h -0.43 v 0 h -0.47 c -14.22,-14.65 -34.41,-14.65 -41.75,-14.65 v -7.1 c 4.57,0 18.35,0 30.27,5.93 v -118.43 c 0,-8.21 -0.9,-10.98 -21.56,-10.98 h -7.35 v -7.07 h 74.34 v 7.07 h -7.35 c -20.66,0 -21.56,2.54 -21.56,10.98 z" /></g></g></svg>