<?xml version="1.0" encoding="UTF-8" standalone="no"?><!DOCTYPE svg PUBLIC "-//W3C//DTD SVG 1.1//EN" "http://www.w3.org/Graphics/SVG/1.1/DTD/svg11.dtd"><svg width="100%" height="100%" viewBox="0 0 307 111" version="1.1" xmlns="http://www.w3.org/2000/svg" xmlns:xlink="http://www.w3.org/1999/xlink" xml:space="preserve" xmlns:serif="http://www.serif.com/" style="fill-rule:evenodd;clip-rule:evenodd;stroke-linecap:round;stroke-miterlimit:1.5;"><g><g><path d="M129.414,58.709l-0,-21.338l2.4,-4.668l16.363,0l2.36,4.629l0,21.377l-2.36,4.628l-16.363,0l-2.4,-4.628Zm6.521,-1.373l0.68,1.373l6.801,-0l0.64,-1.373l0,-18.514l-0.76,-1.451l-6.641,-0l-0.72,1.451l-0,18.514Zm38.166,6.001l-20.363,0l2.48,-4.275l-0,-22.044l-2.48,-4.315l20.363,0l2.36,4.629l-0,5.766l-1.88,3.177l-1.921,0.902l1.761,0.824l2.04,3.295l-0,7.413l-2.36,4.628Zm-4.921,-25.966l-7.201,-0l0.72,1.334l-0,6.158l6.241,-0l1,-1.491l-0,-4.55l-0.76,-1.451Zm-0.2,12.159l-6.281,0l-0,7.806l-0.76,1.373l7.321,-0l0.68,-1.451l-0,-6.276l-0.96,-1.452Zm30.004,13.807l-19.803,0l2.481,-4.275l-0,-21.848l-2.481,-4.511l11.482,0l-2.52,4.472l-0,20.161l-0.76,1.373l7.241,-0l4.36,-2.51l0,7.138Zm13.522,0l-11.441,0l2.48,-4.51l0,-21.613l-2.48,-4.511l11.481,0l-2.52,4.472l0,21.73l2.48,4.432Zm12.002,0l-7.241,-25.927l-3.04,-4.707l11.361,0l-1.88,4.315l4.361,15.69l4.44,-15.808l-1.8,-4.197l9.842,0l-2.961,4.354l-7.761,26.28l-5.321,0Zm29.205,0l-11.442,0l2.48,-4.51l0,-21.613l-2.48,-4.511l11.482,0l-2.521,4.472l0,21.73l2.481,4.432Zm3.2,-4.628l0,-21.338l2.4,-4.668l16.363,0l2.36,4.629l0,21.377l-2.36,4.628l-16.363,0l-2.4,-4.628Zm6.521,-1.373l0.68,1.373l6.801,-0l0.64,-1.373l0,-18.514l-0.76,-1.451l-6.641,-0l-0.72,1.451l0,18.514Zm27.884,6.001l-10.081,0l2.48,-4.432l0,-22.005l-2.48,-4.197l7.601,0l10.041,17.73l0,-13.297l-2.48,-4.433l10.122,0l-2.521,4.393l0,26.241l-4.881,0l-10.321,-17.611l-0,13.179l2.52,4.432Zm-158.704,16.004l-4.36,2.393l-0,-9.806l21.403,-0l-0,9.806l-4.401,-2.393l0,-2.863l-3.04,-0l-0,21.612l2.44,4.472l-11.442,-0l2.481,-4.472l-0,-21.612l-3.081,-0l0,2.863Zm30.525,23.221l-11.442,-0l2.481,-4.511l-0,-21.613l-2.481,-4.51l11.482,-0l-2.52,4.471l-0,21.73l2.48,4.433Zm32.845,-0l-10.122,-0l2.521,-4.433l-0,-13.728l-5.081,18.161l-4.601,-0l-5.04,-18.553l-0,14.12l2.52,4.433l-10.082,-0l2.481,-4.433l-0,-21.965l-2.481,-4.236l11.082,-0l4.521,16.631l5,-16.631l9.322,-0l-2.52,4.236l-0,22.005l2.48,4.393Zm2.96,-30.634l20.683,-0l0,7.138l-4.36,-2.471l-8.081,0l0.72,1.334l-0,6.158l2.72,0l4.721,-2.628l-0,9.885l-4.761,-2.589l-2.68,-0l-0,7.805l-0.76,1.373l8.121,0l4.36,-2.51l0,7.139l-20.683,-0l2.481,-4.276l-0,-22.044l-2.481,-4.314Zm27.885,26.005l8.401,0l0.76,-1.49l-0,-4.04l-1.08,-1.648l-9.762,-3.02l-2.68,-4.668l-0,-6.472l2.4,-4.667l15.803,-0l-0,7.138l-4.401,-2.471l-7.601,0l-0.72,1.452l-0,2.235l1,1.648l9.801,3.059l2.721,4.589l-0,8.316l-2.361,4.668l-16.642,-0l-0,-7.139l4.361,2.51Z"/></g><g><path d="M130.571,13.511l-2.317,1.648l-0,-6.755l11.374,-0l0,6.755l-2.338,-1.648l-0,-1.973l-1.616,0l-0,14.889l1.297,3.08l-6.081,0l1.318,-3.08l0,-14.889l-1.637,0l0,1.973Zm24.238,15.996l-5.911,0l1.319,-3.053l-0,-6.458l-4.912,-0l0,6.485l1.318,3.026l-5.91,0l1.318,-3.08l-0,-14.943l-1.318,-3.08l5.932,-0l-1.34,3.08l0,5.296l4.912,0l-0,-5.296l-1.319,-3.08l5.911,-0l-1.339,3.107l-0,14.889l1.339,3.107Zm1.573,-21.103l10.992,-0l0,4.918l-2.317,-1.703l-4.295,0l0.383,0.919l-0,4.242l1.446,0l2.508,-1.81l0,6.809l-2.53,-1.783l-1.424,-0l-0,5.377l-0.404,0.946l4.316,-0l2.317,-1.73l0,4.918l-10.992,0l1.319,-2.945l-0,-15.186l-1.319,-2.972Z"/></g></g><rect x="4.507" y="4.507" width="101.951" height="101.951" style="stroke:#000;stroke-width:5px;"/><g><path d="M13.431,76.358l3.974,9.039l27.092,0l3.909,-9.039l-0,-41.751l-3.909,-9.039l-27.092,-0l-3.974,9.116l-0,41.674Zm10.797,-2.681l-0,-36.159l1.192,-2.834l10.996,0l1.259,2.834l-0,36.159l-1.06,2.681l-11.261,-0l-1.126,-2.681Z" style="fill:#fff;fill-rule:nonzero;"/><path d="M69.316,40.046l0,-5.592l5.101,0l-0,42.21l-4.107,8.733l18.945,0l-4.041,-8.733l0,-42.21l5.034,0l0,5.592l7.287,4.673l-0,-19.151l-35.439,-0l0,19.151l7.22,-4.673Z" style="fill:#fff;fill-rule:nonzero;"/></g></svg>